<?xml version="1.0" standalone="no"?>
<!DOCTYPE svg PUBLIC "-//W3C//DTD SVG 20010904//EN"
 "http://www.w3.org/TR/2001/REC-SVG-20010904/DTD/svg10.dtd">
<svg version="1.0" xmlns="http://www.w3.org/2000/svg"
 width="238.000000pt" height="120.000000pt" viewBox="0 0 238.000000 120.000000"
 preserveAspectRatio="xMidYMid meet">

<g transform="translate(0.000000,120.000000) scale(0.100000,-0.100000)"
fill="#000000" stroke="none">
<path d="M730 1153 c-8 -3 -18 -11 -22 -17 -14 -20 -9 -651 4 -664 15 -15 61
-15 76 0 9 9 12 97 12 334 0 322 0 323 -22 338 -24 17 -25 17 -48 9z"/>
<path d="M1250 1133 c-47 -31 -92 -78 -106 -111 l-15 -33 -73 7 c-61 5 -79 3
-104 -11 -42 -25 -49 -44 -62 -166 -24 -225 40 -343 200 -365 71 -10 128 11
180 65 55 56 77 117 92 258 16 158 -5 189 -131 200 -59 5 -71 9 -71 24 0 31
47 76 95 89 33 9 44 17 41 27 -4 8 -6 19 -6 24 0 13 -11 10 -40 -8z"/>
<path d="M290 967 c-50 -16 -123 -93 -145 -152 -26 -74 -35 -453 -11 -490 18
-27 54 -33 74 -13 8 8 12 49 12 120 l0 108 43 -44 c66 -69 149 -73 249 -9 64
39 118 143 118 224 0 101 -89 231 -176 257 -49 14 -116 14 -164 -1z m169 -30
c42 -39 52 -79 52 -212 0 -143 -11 -197 -51 -237 -24 -24 -37 -28 -81 -28 -67
0 -110 26 -135 82 -16 35 -19 66 -19 168 1 135 12 184 49 219 48 45 140 49
185 8z"/>
<path d="M1550 958 c-98 -50 -130 -136 -130 -343 0 -89 4 -135 12 -143 19 -19
66 -15 78 7 6 12 10 95 10 201 0 196 5 219 56 259 20 16 41 21 82 21 49 0 58
-3 87 -34 18 -19 35 -49 39 -66 3 -18 6 -110 6 -204 0 -121 4 -176 12 -184 19
-19 66 -15 78 7 6 12 10 95 10 201 0 201 7 232 59 263 37 22 119 22 150 1 50
-36 61 -83 61 -279 0 -195 3 -205 52 -205 39 0 48 25 48 137 0 258 -64 372
-215 381 -77 5 -130 -11 -172 -51 l-33 -31 -27 27 c-64 60 -182 76 -263 35z"/>
<path d="M560 215 c0 -21 -5 -25 -29 -25 -32 0 -41 -14 -41 -65 0 -39 21 -56
66 -51 l29 3 3 82 c2 67 0 81 -13 81 -9 0 -15 -9 -15 -25z m-5 -80 c0 -20 -6
-31 -17 -33 -15 -3 -18 4 -18 33 0 29 3 36 18 33 11 -2 17 -13 17 -33z"/>
<path d="M1550 215 c0 -21 -5 -25 -28 -25 -37 0 -52 -17 -52 -56 0 -43 23 -65
63 -60 l32 3 3 82 c2 51 -1 81 -8 81 -5 0 -10 -11 -10 -25z m-8 -62 c7 -30 -3
-53 -23 -53 -14 0 -19 7 -19 28 0 16 3 32 7 35 12 13 32 7 35 -10z"/>
<path d="M1720 167 c0 -53 4 -78 15 -87 18 -15 40 -3 26 14 -5 6 -11 40 -13
76 -2 39 -8 65 -15 68 -10 3 -13 -16 -13 -71z"/>
<path d="M1787 234 c-8 -8 1 -24 14 -24 5 0 9 7 9 15 0 15 -12 20 -23 9z"/>
<path d="M129 166 c-19 -40 1 -80 40 -84 27 -3 30 -6 21 -18 -8 -9 -21 -12
-37 -7 -19 4 -24 2 -21 -8 6 -18 55 -24 74 -8 10 8 14 33 14 80 l0 69 -40 0
c-33 0 -42 -4 -51 -24z m66 -16 c9 -28 -13 -54 -31 -39 -15 12 -19 41 -7 52
13 13 32 7 38 -13z"/>
<path d="M262 178 c-28 -28 -5 -108 31 -108 29 0 57 32 57 64 0 39 -15 56 -50
56 -14 0 -31 -5 -38 -12z m53 -43 c0 -33 -28 -47 -39 -19 -10 25 3 56 22 52
11 -2 17 -13 17 -33z"/>
<path d="M382 178 c-28 -28 -5 -108 31 -108 29 0 57 32 57 64 0 39 -15 56 -50
56 -14 0 -31 -5 -38 -12z m53 -43 c0 -19 -6 -31 -16 -33 -20 -4 -30 18 -22 48
9 32 38 21 38 -15z"/>
<path d="M620 135 c0 -30 4 -55 9 -55 12 0 21 26 21 62 0 23 4 29 18 26 12 -2
18 -15 20 -46 4 -54 32 -60 32 -6 0 56 -15 74 -60 74 l-40 0 0 -55z"/>
<path d="M752 178 c-19 -19 -14 -73 8 -93 16 -15 26 -17 47 -9 42 14 41 34 -1
27 -23 -3 -36 -2 -36 5 0 6 15 12 32 14 36 3 49 28 28 53 -15 18 -61 20 -78 3z
m58 -18 c0 -5 -9 -10 -20 -10 -11 0 -20 5 -20 10 0 6 9 10 20 10 11 0 20 -4
20 -10z"/>
<path d="M865 169 c-8 -25 15 -49 47 -49 10 0 18 -5 18 -11 0 -8 -12 -10 -35
-6 -42 7 -50 -17 -10 -27 35 -9 65 9 65 40 0 19 -6 26 -30 31 -36 7 -41 26 -5
21 13 -2 25 2 27 7 2 6 -13 11 -34 13 -30 3 -37 -1 -43 -19z"/>
<path d="M987 183 c-4 -3 -7 -17 -7 -30 0 -18 7 -25 30 -29 39 -8 39 -28 0
-22 -38 6 -48 -7 -19 -22 28 -16 66 -5 75 22 7 24 -17 48 -48 48 -10 0 -18 5
-18 11 0 7 12 10 30 7 20 -3 30 0 30 9 0 14 -61 19 -73 6z"/>
<path d="M1190 135 c0 -30 5 -55 10 -55 6 0 10 16 10 35 0 24 5 35 15 35 10 0
15 -11 15 -35 0 -19 5 -35 11 -35 6 0 9 16 7 38 -2 30 -7 38 -25 40 -13 2 -23
10 -23 18 0 8 -4 14 -10 14 -5 0 -10 -25 -10 -55z"/>
<path d="M1614 182 c-33 -21 -22 -95 15 -107 28 -8 61 3 61 20 0 11 -8 13 -29
9 -16 -4 -32 -1 -35 5 -5 7 5 11 29 11 40 0 53 17 35 49 -11 21 -53 28 -76 13z
m51 -22 c4 -6 -5 -10 -20 -10 -15 0 -24 4 -20 10 3 6 12 10 20 10 8 0 17 -4
20 -10z"/>
<path d="M1784 176 c-9 -24 0 -89 14 -94 8 -3 12 12 12 52 0 53 -14 74 -26 42z"/>
<path d="M1836 168 c13 -46 32 -86 43 -92 11 -7 51 71 51 101 0 26 -23 8 -35
-28 l-12 -34 -16 38 c-17 40 -43 53 -31 15z"/>
<path d="M1962 178 c-7 -7 -12 -29 -12 -50 0 -43 26 -64 66 -54 36 9 32 37 -5
30 -16 -4 -32 -1 -35 5 -5 7 5 11 29 11 40 0 53 17 35 49 -12 24 -58 29 -78 9z
m53 -18 c4 -6 -5 -10 -20 -10 -15 0 -24 4 -20 10 3 6 12 10 20 10 8 0 17 -4
20 -10z"/>
<path d="M2072 135 c4 -67 21 -77 28 -15 4 37 9 46 28 48 38 6 24 22 -18 22
l-41 0 3 -55z"/>
<path d="M2171 176 c-19 -23 -6 -45 29 -52 43 -9 38 -28 -5 -21 -42 7 -50 -17
-9 -27 26 -7 74 15 74 34 0 15 -31 40 -51 40 -10 0 -19 5 -19 11 0 7 11 9 31
5 22 -4 29 -2 27 7 -7 18 -63 21 -77 3z"/>
<path d="M1138 169 c-7 -21 4 -88 16 -92 11 -4 12 16 7 96 -1 11 -19 8 -23 -4z"/>
<path d="M1368 169 c-7 -21 4 -88 16 -92 11 -4 12 16 7 96 -1 11 -19 8 -23 -4z"/>
<path d="M1290 151 c0 -5 6 -8 13 -7 21 2 19 -19 -3 -22 -19 -3 -30 -40 -12
-43 49 -9 62 -4 62 22 0 43 -10 59 -36 59 -13 0 -24 -4 -24 -9z m40 -51 c0 -5
-9 -10 -20 -10 -11 0 -20 5 -20 10 0 6 9 10 20 10 11 0 20 -4 20 -10z"/>
</g>
</svg>
